<svg width="146" height="66" viewBox="0 0 146 66" fill="none" xmlns="http://www.w3.org/2000/svg">
<path d="M75.4611 40.3134C56.0169 37.6015 -1.02157 53.0652 0.769331 40.2241C2.56024 27.383 60.2139 7.50833 79.6582 10.2202C99.1024 12.932 141.926 48.6824 140.135 61.5234C138.344 74.3645 94.9054 43.0252 75.4611 40.3134Z" fill="#FE7A00"/>
<path d="M32.6981 44.7554H38.941L28.7188 15.2203H21.8552L11.0123 44.7554H17.2187L19.5187 38.6585H30.3981L32.6981 44.7554ZM21.5632 33.2188L24.9584 24.2378L28.3537 33.2188H21.5632ZM45.715 38.8411V15.2203H39.18V44.7554H60.1357V38.8411H45.715ZM67.7727 15.2203H61.7124V44.7554H67.7727V15.2203ZM71.1603 15.2203V44.7554H92.262V38.8776H77.5492V32.3061L89.8159 32.3426V26.4648L77.5492 26.3918V21.1346H92.262V15.2203H71.1603ZM116.171 15.2203V35.1537L101.677 15.2203H95.6535V44.7554H101.677L101.86 24.6759L116.171 44.7554H122.231V15.2203H116.171Z" fill="black"/>
</svg>
